<svg width="58" height="58" viewBox="0 0 58 58" fill="none" xmlns="http://www.w3.org/2000/svg">
<path d="M29 56.1875C44.0152 56.1875 56.1875 44.0152 56.1875 29C56.1875 13.9848 44.0152 1.8125 29 1.8125C13.9848 1.8125 1.8125 13.9848 1.8125 29C1.8125 44.0152 13.9848 56.1875 29 56.1875Z" fill="#3F3CFF"/>
<path d="M29 51.6562C41.5127 51.6562 51.6562 41.5127 51.6562 29C51.6562 16.4873 41.5127 6.34375 29 6.34375C16.4873 6.34375 6.34375 16.4873 6.34375 29C6.34375 41.5127 16.4873 51.6562 29 51.6562Z" fill="#3C8AFF"/>
<path d="M41.2344 24.968C34.4375 22.4758 27.7313 19.5758 21.1609 16.2227C17.2188 26.6445 15.0438 37.9273 14.9531 49.618C18.6234 47.8508 22.3391 46.2195 26.1 44.7695C29.5891 47.2617 33.2141 49.482 36.8391 51.3398C36.7484 42.0508 38.2891 33.1242 41.2344 24.968Z" fill="#D44A90"/>
<path d="M17.0371 30.4039C17.3543 30.6758 17.7168 30.9023 18.1246 30.993C19.5746 31.3555 20.6168 32.9414 20.6621 34.8445C20.798 37.7445 23.2902 39.3758 25.2387 38.0164C26.5527 37.1555 28.1387 37.5633 29.1355 38.832C30.6762 40.8258 33.3949 40.2367 34.3012 38.0164C34.9355 36.5664 36.4309 35.8414 37.8355 36.2039C37.9262 36.2492 38.0168 36.2492 38.1074 36.2492C38.8324 32.3523 39.8746 28.5461 41.1887 24.9211C34.3918 22.4289 27.6855 19.5289 21.1152 16.1758C19.4387 20.7977 18.034 25.5102 17.0371 30.4039Z" fill="#A72973"/>
<path d="M39.5574 24.3324C33.8934 22.2027 28.3199 19.7559 22.8371 17.0371C19.1215 26.9152 16.9918 37.6543 16.8105 48.7559C19.8918 47.3512 22.973 45.9918 26.0996 44.7684C28.9996 46.8527 31.9902 48.7105 35.0262 50.3871C35.0262 41.1887 36.6121 32.398 39.5574 24.3324Z" fill="#F15A9E"/>
<path d="M20.6633 34.8449C20.7992 37.7449 23.2461 38.8324 25.2398 37.473C26.5539 36.6121 28.1398 37.0199 29.1367 38.334C30.632 40.3277 33.4414 40.2824 34.3477 38.0168C34.7555 37.1105 35.4805 36.4762 36.3414 36.2043C37.1117 32.0809 38.1992 28.0934 39.5586 24.2871C33.8945 22.2027 28.3211 19.7559 22.8383 17.0371C21.1164 21.6137 19.757 26.3262 18.7148 31.2199C19.8477 31.8543 20.618 33.2137 20.6633 34.8449Z" fill="#D44A90"/>
<path d="M35.5243 8.06556C37.518 7.02337 39.9649 8.42806 40.0555 10.6937C40.1461 12.189 41.2336 13.3671 42.6836 13.5937C44.9039 13.9562 46.0368 16.4937 44.8133 18.3968C43.9977 19.6202 44.1789 21.2515 45.2211 22.2937C46.8071 23.8796 46.2633 26.5984 44.1336 27.414C42.7743 27.9577 41.9586 29.3624 42.1852 30.8124C42.5477 33.0327 40.4633 34.8906 38.2883 34.3468C36.8383 33.9843 35.343 34.6187 34.7086 35.9781C33.6664 38.0171 30.9024 38.289 29.4977 36.5218C28.5461 35.389 26.9602 35.0265 25.6461 35.7062C23.6524 36.7484 21.2055 35.3437 21.1149 33.0781C21.0242 31.5827 19.9367 30.4046 18.4867 30.1781C16.2664 29.8156 15.1336 27.2781 16.3571 25.3749C17.1727 24.1515 16.9914 22.5203 15.9493 21.4781C14.3633 19.8921 14.9071 17.1734 17.0367 16.3577C18.3961 15.814 19.2118 14.4093 18.9852 12.9593C18.6227 10.739 20.7071 8.88119 22.8821 9.42494C24.3321 9.78744 25.8274 9.15306 26.4618 7.79369C27.5039 5.75463 30.268 5.48275 31.6727 7.24994C32.5789 8.38275 34.2102 8.69994 35.5243 8.06556Z" fill="#B0D324"/>
<path d="M41.2484 24.1126C42.4838 18.2349 38.7205 12.4686 32.8428 11.2332C26.9652 9.99783 21.1989 13.7611 19.9635 19.6388C18.7281 25.5165 22.4914 31.2827 28.369 32.5181C34.2467 33.7536 40.013 29.9903 41.2484 24.1126Z" fill="#09DDBD"/>
<path d="M20.2102 20.6168C21.4336 14.7262 27.1883 10.9652 33.0789 12.1887C37.0664 13.0496 40.1024 15.9496 41.2352 19.5746C40.3742 15.4965 37.157 12.098 32.8524 11.1918C26.9617 9.96834 21.1617 13.7746 19.9383 19.6199C19.5305 21.523 19.6664 23.3808 20.2102 25.1027C19.893 23.6527 19.893 22.1574 20.2102 20.6168Z" fill="#037C68"/>
<path d="M29.6335 22.203L27.4132 18.7593C27.2772 18.5327 27.0054 18.4874 26.7788 18.6233L24.7397 19.9374C24.5132 20.0733 24.4679 20.3452 24.6038 20.5718L28.6819 26.7796C28.8179 27.0062 29.0897 27.0515 29.3163 26.9155L37.3819 21.6593C37.6085 21.5233 37.6538 21.2515 37.5179 21.0249L36.2038 18.9858C36.0679 18.7593 35.796 18.714 35.5694 18.8499L30.2679 22.2937C30.0413 22.4749 29.7694 22.3843 29.6335 22.203Z" fill="#F3F3F3"/>
<path d="M10.1504 22.4289L10.4223 21.7492C10.5129 21.568 10.7848 21.568 10.8301 21.7492L11.102 22.4289C11.3285 22.9727 11.7363 23.3805 12.2801 23.607L12.9598 23.8789C13.141 23.9695 13.141 24.2414 12.9598 24.2867L12.2348 24.5133C11.691 24.7398 11.2832 25.1477 11.0566 25.6914L10.7848 26.3711C10.6941 26.5523 10.4223 26.5523 10.377 26.3711L10.1051 25.6914C9.87852 25.1477 9.4707 24.7398 8.92695 24.5133L8.24727 24.2414C8.06602 24.1508 8.06602 23.8789 8.24727 23.8336L8.92695 23.5617C9.51602 23.3805 9.92383 22.9273 10.1504 22.4289ZM42.3223 40.5539L42.5941 39.8742C42.6848 39.693 42.9566 39.693 43.002 39.8742L43.2738 40.5539C43.5004 41.0977 43.9082 41.5055 44.452 41.732L45.1316 42.0039C45.3129 42.0945 45.3129 42.3664 45.1316 42.4117L44.4066 42.6383C43.8629 42.8648 43.4551 43.2727 43.2285 43.8164L42.9566 44.4961C42.866 44.6773 42.5941 44.6773 42.5488 44.4961L42.277 43.8164C42.0504 43.2727 41.6426 42.8648 41.0988 42.6383L40.4191 42.3664C40.2379 42.2758 40.2379 42.0039 40.4191 41.9586L41.0988 41.6867C41.6879 41.5055 42.0957 41.0523 42.3223 40.5539Z" fill="#FFDE39"/>
<path d="M10.4219 35.7969C10.9224 35.7969 11.3281 35.3911 11.3281 34.8906C11.3281 34.3901 10.9224 33.9844 10.4219 33.9844C9.92137 33.9844 9.51562 34.3901 9.51562 34.8906C9.51562 35.3911 9.92137 35.7969 10.4219 35.7969Z" fill="#F3F3F3"/>
<path d="M48.0312 32.625C48.5318 32.625 48.9375 32.2193 48.9375 31.7188C48.9375 31.2182 48.5318 30.8125 48.0312 30.8125C47.5307 30.8125 47.125 31.2182 47.125 31.7188C47.125 32.2193 47.5307 32.625 48.0312 32.625Z" fill="#F3F3F3"/>
</svg>
