<svg width="89" height="93" viewBox="0 0 89 93" fill="none" xmlns="http://www.w3.org/2000/svg">
<path d="M84.3964 72.1207H65.9826C64.7619 72.1207 63.5904 72.6057 62.7274 73.4689C61.8644 74.332 61.3793 75.5035 61.3793 76.7241V92.0689H88.9999V76.7241C88.9999 75.5034 88.5149 74.3319 87.6518 73.4689C86.7886 72.6059 85.6172 72.1207 84.3966 72.1207H84.3964Z" fill="white"/>
<path d="M82.0957 65.2162C82.0957 69.0298 79.0041 72.1214 75.1905 72.1214C71.3769 72.1214 68.2853 69.0298 68.2853 65.2162C68.2853 61.4026 71.3769 58.311 75.1905 58.311C79.0041 58.311 82.0957 61.4026 82.0957 65.2162Z" fill="white"/>
<path d="M57.4071 48.9368L59.5773 46.7666L66.0865 53.2758L63.9163 55.446L57.4071 48.9368Z" fill="white"/>
<path d="M51.8707 61.1075L52.4729 58.0981L61.5004 59.9053L60.8982 62.9147L51.8707 61.1075Z" fill="white"/>
<path d="M68.7395 41.8326L71.7488 41.2305L73.5546 50.2585L70.5453 50.8606L68.7395 41.8326Z" fill="white"/>
<path d="M11.3763 61.6423L9.20682 63.8125L7.03732 61.6423L4.86713 63.8125L7.03732 65.982L4.86713 68.1515L7.03732 70.3217L9.20682 68.1515L11.3763 70.3217L13.5465 68.1515L11.3763 65.982L13.5465 63.8125L11.3763 61.6423Z" fill="white"/>
<path d="M22.1176 61.6423L19.9481 63.8125L17.7787 61.6423L15.6085 63.8125L17.7787 65.982L15.6085 68.1515L17.7787 70.3217L19.9481 68.1515L22.1176 70.3217L24.2878 68.1515L22.1176 65.982L24.2878 63.8125L22.1176 61.6423Z" fill="white"/>
<path d="M32.859 61.6423L30.6895 63.8125L28.52 61.6423L26.3498 63.8125L28.52 65.982L26.3498 68.1515L28.52 70.3217L30.6895 68.1515L32.859 70.3217L35.0292 68.1515L32.859 65.982L35.0292 63.8125L32.859 61.6423Z" fill="white"/>
<path d="M39.8965 6.13782C39.0827 6.13782 38.3017 6.46116 37.7263 7.03659C37.1509 7.61201 36.8275 8.39296 36.8275 9.20678V12.2757H42.9654V9.20678C42.9654 8.39296 42.6421 7.61201 42.0667 7.03659C41.4913 6.46116 40.7103 6.13782 39.8965 6.13782Z" fill="white"/>
<path d="M39.8965 30.6896C43.9663 30.6896 47.869 29.0729 50.7468 26.1951C53.6246 23.3172 55.2413 19.4146 55.2413 15.3448C55.2413 11.275 53.6246 7.37235 50.7468 4.49454C47.8689 1.61673 43.9663 0 39.8965 0C35.8267 0 31.924 1.6167 29.0462 4.49454C26.1684 7.37239 24.5517 11.275 24.5517 15.3448C24.5517 19.4146 26.1684 23.3173 29.0462 26.1951C31.9241 29.0729 35.8267 30.6896 39.8965 30.6896ZM32.2241 12.2759H33.7586V9.20689C33.7586 7.01407 34.9286 4.98768 36.8275 3.89109C38.7264 2.79504 41.0666 2.79504 42.9655 3.89109C44.8644 4.98784 46.0344 7.01425 46.0344 9.20689V12.2759H47.5689V24.5517H32.2241V12.2759Z" fill="white"/>
<path d="M46.0345 78.2584H49.1034V81.3274H46.0345V78.2584Z" fill="white"/>
<path d="M52.1723 78.2584H55.2413V81.3274H52.1723V78.2584Z" fill="white"/>
<path d="M32.2242 35.3458V35.2937H7.67249V35.3458L19.9483 42.7113L32.2242 35.3458Z" fill="white"/>
<path d="M32.2242 38.9231L19.9483 46.2886L7.67249 38.9231V55.2407H32.2242V38.9231Z" fill="white"/>
<path d="M4.60345 85.9311H35.2931C36.5138 85.9311 37.6853 85.4461 38.5483 84.583C39.4113 83.7198 39.8964 82.5483 39.8964 81.3278V33.7588H36.8275V79.7933H3.06888V23.0174H21.4827V16.8795H4.60336C3.38263 16.8795 2.21114 17.3645 1.34815 18.2277C0.485159 19.0908 0 20.2623 0 21.4829V81.3277C0 82.5484 0.485002 83.7199 1.34815 84.5829C2.2113 85.4459 3.38279 85.931 4.60336 85.931L4.60345 85.9311Z" fill="white"/>
</svg>
