<svg width="22" height="20" viewBox="0 0 22 20" fill="none" xmlns="http://www.w3.org/2000/svg">
<path d="M19.6837 0.236572C19.6184 0.236572 19.5531 0.245187 19.4892 0.261341L11.5446 2.32969C11.2359 2.42482 10.9678 2.5763 10.7391 2.7626C10.5051 2.57307 10.2287 2.41871 9.90813 2.32071L1.99587 0.262471C1.93197 0.246676 1.86664 0.237702 1.80131 0.237702C0.808024 0.237702 0 1.04573 0 2.03901L0.000358961 15.8461C0.000358961 16.7575 0.611665 17.5505 1.5575 17.8649C1.5733 17.8707 1.58981 17.8757 1.60704 17.88L9.55515 19.9465C9.72458 19.9821 9.88647 20 10.0362 20C10.2709 20 10.5182 19.9444 10.7433 19.8281C10.968 19.9444 11.2146 20 11.4494 20C11.5998 20 11.7606 19.9821 11.9667 19.9383L19.8789 17.88C19.8954 17.8753 19.9119 17.8703 19.9285 17.8649C20.8747 17.5505 21.4856 16.7579 21.4856 15.8461L21.4852 2.03811C21.4845 1.04482 20.6769 0.236797 19.6837 0.236797L19.6837 0.236572ZM9.96684 18.4518C9.94745 18.4497 9.92663 18.4472 9.90761 18.4432L2.02373 16.3925C1.72257 16.2859 1.54344 16.0827 1.54344 15.8454V2.03835C1.54344 1.91953 1.62493 1.81867 1.73476 1.78996L9.48585 3.80556C9.7942 3.90069 9.97009 4.09776 9.97009 4.34831V18.3631C9.97044 18.3979 9.96865 18.4273 9.96685 18.4521L9.96684 18.4518ZM19.941 15.8458C19.941 16.0831 19.7619 16.2859 19.4607 16.3929L11.6132 18.4357C11.5755 18.4436 11.5435 18.4479 11.5173 18.4511C11.5152 18.427 11.5137 18.3976 11.5137 18.3624V4.34766C11.5137 4.09746 11.6903 3.90004 11.9657 3.8146L19.749 1.78898C19.8592 1.81841 19.9403 1.91857 19.9403 2.03738V15.8463L19.941 15.8458Z" fill="#F3F3F3"/>
</svg>
