<svg width="8" height="6" viewBox="0 0 8 6" fill="none" xmlns="http://www.w3.org/2000/svg">
<path d="M7.24439 0.942883H6.01778L5.97332 0.565727C5.95552 0.428571 5.9022 0.30857 5.81335 0.214285C5.68885 0.0771287 5.50221 0 5.31553 0H2.68444C2.47109 0 2.26667 0.102838 2.14222 0.274315C2.07997 0.351444 2.04444 0.454345 2.03558 0.565727L1.98219 0.942883H0.755581C0.337807 0.942883 0 1.26855 0 1.67142V5.2714C0 5.67426 0.337791 6 0.755581 6H7.24442C7.66219 6 8 5.67427 8 5.2714V1.67142C7.99994 1.26856 7.66215 0.942883 7.24437 0.942883H7.24439ZM7.55553 5.27143C7.55553 5.4343 7.41329 5.57146 7.24439 5.57146H0.755548C0.586645 5.57146 0.444408 5.43431 0.444408 5.27143V1.67145C0.444408 1.50858 0.586643 1.37142 0.755548 1.37142H2.17779C2.29336 1.37142 2.38222 1.29429 2.40001 1.18285L2.47113 0.608568C2.48 0.565699 2.48892 0.53999 2.50666 0.51428C2.55112 0.454251 2.61331 0.428542 2.68442 0.428542H5.31551C5.37776 0.428542 5.43995 0.454251 5.48441 0.50567C5.51107 0.53138 5.52887 0.574249 5.52887 0.625667L5.59999 1.19139C5.61778 1.30284 5.70663 1.37996 5.82221 1.37996H7.24445C7.41335 1.37996 7.55559 1.51712 7.55559 1.67999L7.55553 5.27143Z" fill="#505050"/>
<path d="M3.99972 1.41431C2.94193 1.41431 2.08862 2.23719 2.08862 3.25715C2.08862 4.27716 2.94192 5.1 3.99972 5.1C5.05752 5.1 5.91081 4.27718 5.91081 3.25715C5.91081 2.23713 5.05752 1.41431 3.99972 1.41431ZM3.99972 4.67143C3.19082 4.67143 2.5331 4.03713 2.5331 3.25718C2.5331 2.47717 3.19084 1.84294 3.99972 1.84294C4.8086 1.84294 5.46634 2.47719 5.46634 3.25718C5.46634 4.03718 4.8086 4.67143 3.99972 4.67143Z" fill="#505050"/>
</svg>
