<svg width="17" height="16" viewBox="0 0 17 16" fill="none" xmlns="http://www.w3.org/2000/svg">
<path d="M16.9146 10.2299L15.8252 9.022L14.6175 10.1115C14.4813 10.2343 14.4704 10.4442 14.5933 10.5804C14.7161 10.7169 14.926 10.7274 15.0624 10.6046L15.4516 10.2536C15.0076 13.3316 12.1941 15.5387 9.07633 15.2074C8.89406 15.1875 8.73064 15.32 8.71108 15.5023C8.69187 15.6849 8.82398 15.8483 9.00625 15.8675C9.23797 15.8924 9.46852 15.9044 9.69691 15.9044C12.8924 15.9044 15.6575 13.5406 16.1114 10.3309L16.4215 10.6745C16.4869 10.7472 16.5775 10.7845 16.6681 10.7845C16.7475 10.7845 16.8268 10.7562 16.8902 10.6988C17.0265 10.576 17.0375 10.3661 16.9147 10.2299L16.9146 10.2299Z" fill="#253993"/>
<path d="M9.39539 8.26363V8.59569H16.3684V8.26363C16.3684 6.65357 15.2714 5.29478 13.7855 4.89596C14.4499 4.56357 14.9074 3.87586 14.9074 3.08372C14.9074 1.96674 13.9986 1.05823 12.8819 1.05823C11.765 1.05823 10.8564 1.96674 10.8564 3.08372C10.8564 3.87601 11.3137 4.56333 11.978 4.89596C10.4921 5.29512 9.39545 6.65357 9.39545 8.26363H9.39539Z" fill="#253993"/>
<path d="M10.0958 1.84003L9.03285 0.608837C8.91295 0.47009 8.7034 0.454437 8.56466 0.574329C8.42591 0.694221 8.41026 0.903992 8.53015 1.04288L8.81571 1.37364C5.31264 1.11464 2.21881 3.71255 1.88456 7.22554C1.86725 7.40816 2.00113 7.57017 2.18376 7.58784C2.19443 7.58879 2.20499 7.58914 2.21566 7.58914C2.385 7.58914 2.52945 7.46035 2.54605 7.28864C2.84821 4.10889 5.66903 1.76431 8.84544 2.04239L8.43074 2.40029C8.29199 2.52018 8.2767 2.72974 8.39659 2.86848C8.46229 2.94449 8.55502 2.98374 8.64799 2.98374C8.72508 2.98374 8.80239 2.95718 8.86477 2.90311L10.0958 1.84003Z" fill="#253993"/>
<path d="M5.35132 12.3004C6.01578 11.968 6.47328 11.2802 6.47328 10.4881C6.47328 9.37112 5.56441 8.46262 4.44779 8.46262C3.33081 8.46262 2.42231 9.37112 2.42231 10.4881C2.42231 11.2804 2.87957 11.9677 3.5439 12.3004C2.058 12.6995 0.961304 14.0578 0.961304 15.668V16.0001H7.93434V15.668C7.93446 14.058 6.83728 12.6992 5.35138 12.3004H5.35132Z" fill="#253993"/>
</svg>
