<svg width="14" height="15" viewBox="0 0 14 15" fill="none" xmlns="http://www.w3.org/2000/svg">
<path d="M13.8321 6.68818L7.44873 0.185783C7.32947 0.0667666 7.16903 0 7.00189 0C6.8349 0 6.67446 0.0667666 6.55506 0.185783L0.171694 6.68818C0.0614119 6.8085 2.48633e-07 6.96685 2.48633e-07 7.13146C-0.000142264 7.29605 0.0609851 7.45454 0.170983 7.57503C0.281123 7.6955 0.431873 7.76894 0.593015 7.7807H1.37186V14.2831C1.37186 14.4555 1.43911 14.6208 1.5588 14.7429C1.67849 14.8648 1.84078 14.9333 2.01019 14.9333H5.58488V10.57C5.58488 10.3976 5.65213 10.2321 5.77182 10.1102C5.8915 9.98831 6.0538 9.9198 6.22321 9.9198H7.76806H7.76792C7.93719 9.9198 8.09962 9.98831 8.21931 10.1102C8.339 10.2321 8.40625 10.3976 8.40625 10.57V14.9266H11.9809C12.1502 14.9266 12.3126 14.8581 12.4323 14.7362C12.552 14.6143 12.6193 14.4488 12.6193 14.2764V7.77401H13.43C13.5873 7.75674 13.7327 7.68054 13.838 7.56036C13.9433 7.44004 14.001 7.28415 14 7.12303C13.9988 6.96192 13.9391 6.80691 13.8321 6.68804L13.8321 6.68818Z" fill="#253993"/>
</svg>
