<svg width="12" height="16" viewBox="0 0 12 16" fill="none" xmlns="http://www.w3.org/2000/svg">
<path d="M11.5243 14.1853L9.8377 10.5882C8.88728 11.4458 7.66794 12.0091 6.3208 12.1307L8.04579 15.8143C8.09695 15.9262 8.20906 15.9967 8.33375 15.9999H8.33696C8.45858 15.9999 8.57055 15.9295 8.62493 15.8207L9.41862 14.2142L11.1627 14.6335C11.2811 14.6623 11.4092 14.6206 11.4859 14.5247C11.5628 14.4253 11.5789 14.2942 11.5244 14.1853L11.5243 14.1853Z" fill="#253993"/>
<path d="M0.0296089 14.1855C-0.0215554 14.2974 -0.00561502 14.4287 0.0712617 14.5247C0.148008 14.6208 0.272836 14.6623 0.394452 14.6335L2.13857 14.2142L2.93227 15.8207C2.9833 15.9264 3.09527 15.9968 3.21688 15.9968H3.2201C3.34171 15.9968 3.45368 15.9232 3.50806 15.8112L5.23305 12.1276C3.88577 12.006 2.66653 11.4428 1.71614 10.5851L0.0296089 14.1855Z" fill="#253993"/>
<path d="M5.777 0.635986C2.77842 0.635986 0.336548 3.07779 0.336548 6.07644C0.336548 9.07508 2.77836 11.5169 5.777 11.5169C8.7788 11.5169 11.2175 9.07508 11.2175 6.07644C11.2175 3.07779 8.77886 0.635986 5.777 0.635986ZM8.01709 7.0365V7.99656C8.01709 8.1021 7.96593 8.20135 7.87954 8.26215C7.82516 8.29738 7.76114 8.31653 7.69712 8.31653C7.65868 8.31653 7.61716 8.3101 7.57872 8.29416L4.43617 7.03649H4.1833L4.49376 8.90545C4.52256 9.07823 4.40416 9.24471 4.23138 9.27349C4.2121 9.27657 4.19616 9.27657 4.17687 9.27657C4.02324 9.27657 3.88891 9.1646 3.86319 9.00776L3.53371 7.03649H2.89684C2.72085 7.03649 2.57687 6.89251 2.57687 6.71651V4.79639C2.57687 4.6204 2.72085 4.47642 2.89684 4.47642H4.4362L7.57875 3.21874C7.67799 3.1803 7.78997 3.19316 7.87957 3.25075C7.96596 3.31142 8.01712 3.41067 8.01712 3.51622V4.47628C8.72431 4.47628 9.29715 5.04912 9.29715 5.75631C9.29729 6.46363 8.72444 7.03648 8.01712 7.03648L8.01709 7.0365Z" fill="#253993"/>
</svg>
