<svg width="15" height="16" viewBox="0 0 15 16" fill="none" xmlns="http://www.w3.org/2000/svg">
<path d="M12.6936 0.996107H1.3132C0.964934 0.996107 0.630896 1.13452 0.384608 1.38071C0.138419 1.62701 0 1.96101 0 2.3093V11.0634C0 11.4117 0.138412 11.7456 0.384608 11.9919C0.630899 12.2382 0.964908 12.3765 1.3132 12.3765H3.50173V14.4556C3.50173 14.6036 3.56198 14.7453 3.66843 14.8481C3.77499 14.9508 3.91869 15.0059 4.06656 15.0006C4.21454 14.9954 4.35396 14.9304 4.45299 14.8204L6.65312 12.3765H12.6935C13.0417 12.3765 13.3758 12.2382 13.622 11.9919C13.8682 11.7456 14.0067 11.4117 14.0067 11.0634V2.30929C14.0067 1.96103 13.8682 1.62699 13.622 1.3807C13.3758 1.13451 13.0417 0.996094 12.6935 0.996094L12.6936 0.996107ZM4.37714 7.5617C4.14499 7.5617 3.92232 7.46949 3.75815 7.30533C3.59399 7.14117 3.50178 6.91848 3.50178 6.68634C3.50178 6.45409 3.59399 6.23141 3.75815 6.06725C3.92231 5.90309 4.145 5.81088 4.37714 5.81088C4.60928 5.81088 4.83196 5.90309 4.99613 6.06725C5.16039 6.23141 5.2526 6.4541 5.2526 6.68634C5.2526 6.91849 5.16039 7.14117 4.99613 7.30533C4.83197 7.46949 4.60928 7.5617 4.37714 7.5617ZM7.00338 7.5617C6.77123 7.5617 6.54855 7.46949 6.38439 7.30533C6.22023 7.14117 6.12792 6.91848 6.12792 6.68634C6.12792 6.45409 6.22023 6.23141 6.38439 6.06725C6.54855 5.90309 6.77123 5.81088 7.00338 5.81088C7.23552 5.81088 7.4582 5.90309 7.62236 6.06725C7.78652 6.23141 7.87883 6.4541 7.87883 6.68634C7.87883 6.91849 7.78652 7.14117 7.62236 7.30533C7.4582 7.46949 7.23552 7.5617 7.00338 7.5617ZM9.62961 7.5617C9.39747 7.5617 9.17479 7.46949 9.01062 7.30533C8.84636 7.14117 8.75415 6.91848 8.75415 6.68634C8.75415 6.45409 8.84636 6.23141 9.01062 6.06725C9.17478 5.90309 9.39747 5.81088 9.62961 5.81088C9.86176 5.81088 10.0844 5.90309 10.2486 6.06725C10.4128 6.23141 10.505 6.4541 10.505 6.68634C10.505 6.91849 10.4128 7.14117 10.2486 7.30533C10.0844 7.46949 9.86175 7.5617 9.62961 7.5617Z" fill="#371742"/>
</svg>
