<svg width="15" height="16" viewBox="0 0 15 16" fill="none" xmlns="http://www.w3.org/2000/svg">
<path d="M7.65056 0.819397C7.50557 0.819397 7.38802 0.939334 7.38802 1.08725C7.38802 1.23517 7.50557 1.3551 7.65056 1.3551C9.39655 1.35606 11.0759 2.03967 12.343 3.26512C13.6101 4.49067 14.3687 6.16498 14.4628 7.94383C14.5571 9.72252 13.9796 11.4703 12.8493 12.8279C11.719 14.1855 10.1216 15.0496 8.38582 15.2426C6.65011 15.4354 4.90799 14.9424 3.51758 13.8649C2.12729 12.7874 1.19445 11.2073 0.911058 9.44977L1.30487 9.41498L0.561895 8.31941L0 9.52738L0.388529 9.49521L0.388646 9.49533C0.683768 11.3924 1.68118 13.1017 3.1752 14.2708C4.66921 15.4398 6.54591 15.9793 8.41849 15.7782C10.291 15.5771 12.0163 14.6507 13.239 13.1899C14.4617 11.7291 15.0884 9.84556 14.9899 7.92712C14.8915 6.00887 14.0753 4.20228 12.7097 2.87986C11.3441 1.55746 9.53343 0.820022 7.65064 0.819532L7.65056 0.819397Z" fill="#253993"/>
<path d="M2.15258 8.45326C2.15258 9.98064 2.74727 11.4454 3.80589 12.5252C4.86448 13.6053 6.30026 14.212 7.7971 14.212C9.29417 14.212 10.7299 13.6053 11.7886 12.5252C12.8471 11.4453 13.4418 9.98052 13.4418 8.45326C13.4418 6.92601 12.8471 5.46109 11.7886 4.38129C10.73 3.30127 9.29423 2.69452 7.7971 2.69452C6.30074 2.69667 4.86625 3.304 3.80799 4.38355C2.74973 5.46311 2.15447 6.92672 2.15234 8.45339L2.15258 8.45326ZM7.38777 3.76599C7.38777 3.61808 7.50533 3.49814 7.65031 3.49814C7.71993 3.49814 7.78674 3.52636 7.83597 3.57658C7.88519 3.6268 7.91285 3.69496 7.91285 3.76599V3.83558C7.92446 3.85508 7.93079 3.8772 7.93125 3.89992V8.05149H11.0634C11.133 8.05149 11.1999 8.07971 11.2491 8.12993C11.2983 8.18015 11.326 8.24831 11.326 8.31934C11.3273 8.33715 11.3273 8.35509 11.326 8.37291C11.3577 8.41261 11.3639 8.46749 11.342 8.51353C11.32 8.55957 11.2738 8.58827 11.2235 8.58719H7.65029C7.50531 8.58719 7.38775 8.46725 7.38775 8.31934L7.38777 3.76599Z" fill="#253993"/>
</svg>
