<svg width="15" height="15" viewBox="0 0 15 15" fill="none" xmlns="http://www.w3.org/2000/svg">
<path d="M7.5 6.4251e-05C5.51087 6.4251e-05 3.60327 0.790208 2.19667 2.19673C0.790147 3.60325 0 5.51101 0 7.50003C0 9.48905 0.790147 11.3968 2.19667 12.8033C3.6032 14.2099 5.51097 15 7.5 15C9.48903 15 11.3967 14.2099 12.8033 12.8033C14.2099 11.3968 15 9.48905 15 7.50003C14.9977 5.51156 14.2067 3.60524 12.8007 2.1993C11.3947 0.793294 9.48832 0.00225002 7.49993 0L7.5 6.4251e-05ZM7.5 11.2537C7.30011 11.2537 7.10837 11.1742 6.96713 11.033C6.82575 10.8916 6.74639 10.6999 6.74639 10.5C6.74639 10.3001 6.82575 10.1085 6.96713 9.96711C7.10838 9.82573 7.3001 9.74638 7.5 9.74638C7.6999 9.74638 7.89163 9.82573 8.03287 9.96711C8.17425 10.1085 8.25361 10.3001 8.25361 10.5C8.2531 10.6997 8.1735 10.8911 8.03224 11.0323C7.89112 11.1735 7.69975 11.2531 7.49998 11.2537L7.5 11.2537ZM8.24997 8.12187V8.24995C8.24997 8.51789 8.10708 8.76549 7.87505 8.89946C7.64301 9.03343 7.35699 9.03343 7.12495 8.89946C6.89292 8.76549 6.75003 8.51789 6.75003 8.24995V7.49998C6.74991 7.30097 6.82888 7.11024 6.96951 6.96949C7.11026 6.82886 7.30097 6.74989 7.5 6.75001C7.67641 6.74989 7.84705 6.68761 7.98202 6.57423C8.11713 6.46072 8.20778 6.30327 8.23829 6.12962C8.2688 5.95598 8.23704 5.77705 8.14877 5.62437C8.0605 5.47169 7.92113 5.35504 7.7554 5.2949C7.58966 5.23475 7.40796 5.23501 7.24236 5.2954C7.07662 5.35592 6.93762 5.47281 6.8496 5.62574C6.71537 5.85752 6.46764 6.00014 6.19969 5.99979C5.93175 5.99953 5.6844 5.85627 5.55078 5.6241C5.41706 5.39181 5.41744 5.10604 5.55166 4.87413C5.91993 4.23705 6.57649 3.82032 7.30974 3.75815C8.04299 3.69599 8.76034 3.99634 9.23056 4.56237C9.70079 5.12841 9.86465 5.88854 9.66916 6.59794C9.47379 7.30734 8.94381 7.8765 8.24996 8.12172L8.24997 8.12187Z" fill="#253993"/>
</svg>
