<svg width="15" height="18" viewBox="0 0 15 18" fill="none" xmlns="http://www.w3.org/2000/svg">
<path d="M7.4838 12.143C8.71222 12.143 9.89041 11.6549 10.759 10.7863C11.6277 9.9176 12.1157 8.73941 12.1157 7.51108C12.1157 6.28275 11.6277 5.10447 10.759 4.23583C9.89032 3.3672 8.71213 2.87921 7.4838 2.87921C6.25547 2.87921 5.07719 3.36723 4.20855 4.23583C3.33992 5.10456 2.85193 6.28275 2.85193 7.51108C2.85193 8.73941 3.33995 9.9177 4.20855 10.7863C5.07728 11.655 6.25547 12.143 7.4838 12.143ZM9.02277 7.92698C8.95879 7.98999 8.92996 8.08037 8.94565 8.16868L9.26421 9.97903L7.63132 9.13023H7.6312C7.55189 9.08863 7.45713 9.08863 7.37783 9.13023L5.75396 9.99118L6.05806 8.17901H6.05794C6.0729 8.09058 6.04322 8.00033 5.97863 7.93793L4.65583 6.6595L6.47543 6.38702C6.56398 6.37377 6.64037 6.31769 6.67978 6.23717L7.48648 4.5846L8.30803 6.23193C8.34805 6.31234 8.42517 6.36781 8.51397 6.38021L10.3351 6.63602L9.02277 7.92698Z" fill="#253993"/>
<path d="M2.03437 9.80235V12.4099C2.03437 12.5544 2.09179 12.6931 2.19396 12.7953C2.29614 12.8974 2.43481 12.9548 2.57931 12.9548L3.83682 12.957L2.59379 16.69C2.55986 16.7918 2.58881 16.9041 2.66787 16.9767C2.74682 17.0494 2.86103 17.0688 2.95968 17.0266L4.69717 16.2819L5.65677 17.2413H5.65689C5.70797 17.2918 5.77707 17.3201 5.84896 17.32C5.96256 17.3201 6.06426 17.2498 6.10427 17.1434L6.99636 14.7658L7.09744 14.8669C7.19986 14.9692 7.33877 15.0266 7.48363 15.0266C7.62838 15.0266 7.76729 14.9692 7.86982 14.8669L7.97115 14.7656L8.86323 17.1434C8.89583 17.2302 8.97027 17.2944 9.06077 17.314C9.1514 17.3336 9.24566 17.3058 9.31123 17.2402L10.2708 16.2808L12.0083 17.0255C12.107 17.0677 12.2212 17.0482 12.3002 16.9756C12.3792 16.903 12.4083 16.7907 12.3743 16.6889L11.1313 12.9578L12.3882 12.955C12.5327 12.955 12.6714 12.8976 12.7735 12.7954C12.8757 12.6932 12.9331 12.5545 12.9331 12.41V9.80442L14.8404 7.89712C14.9426 7.79458 15 7.65555 15 7.51081C15 7.36594 14.9426 7.22702 14.8404 7.12437L12.9331 5.23046V2.60659C12.9331 2.46209 12.8757 2.32342 12.7735 2.22124C12.6714 2.11907 12.5327 2.06165 12.3882 2.06165H9.77707L7.86978 0.154358C7.76566 0.0553442 7.62735 0 7.48359 0C7.33981 0 7.20151 0.0553442 7.0974 0.154358L5.19228 2.06165H2.57925C2.43474 2.06165 2.29607 2.11907 2.1939 2.22124C2.09172 2.32342 2.03431 2.46209 2.03431 2.60659V5.23155L0.162419 7.10892C0.0599981 7.20964 0.00161168 7.34685 3.29051e-05 7.49063C-0.00154839 7.63428 0.0539198 7.77271 0.15427 7.87561L2.03437 9.80235ZM2.42592 5.61097C2.52396 5.50855 2.57882 5.3722 2.57931 5.23036V2.60648H5.19235C5.33637 2.60636 5.47443 2.54931 5.57648 2.44762L7.48536 0.54033L9.39266 2.44762C9.49434 2.54883 9.6318 2.60599 9.7752 2.60648H12.3882V5.23036C12.3892 5.37511 12.4465 5.51378 12.548 5.61705L14.4552 7.51182L12.548 9.41911C12.4461 9.5208 12.3887 9.65862 12.3882 9.80241V12.41L10.7758 12.4132L9.7752 12.4154C9.63118 12.4156 9.49312 12.4726 9.39107 12.5743L7.48219 14.4816L7.08164 14.081L5.57648 12.5745C5.47467 12.473 5.33685 12.4158 5.19309 12.4154L4.19261 12.4133L2.57931 12.41V9.80241C2.57955 9.66022 2.52445 9.52338 2.42568 9.42096L0.545634 7.49567L2.42592 5.61097Z" fill="#253993"/>
</svg>
