<svg width="52" height="67" viewBox="0 0 52 67" fill="none" xmlns="http://www.w3.org/2000/svg">
<path d="M25.8825 9.73291C27.0814 9.73291 27.9984 8.81591 27.9984 7.61699V2.11592C27.9984 0.917033 27.0814 0 25.8825 0C24.6836 0 23.7666 0.916996 23.7666 2.11592V7.61699C23.7666 8.74553 24.6836 9.73291 25.8825 9.73291Z" fill="#03CB6B"/>
<path d="M15.4449 10.0852C15.7976 10.9313 16.5734 11.4253 17.4197 11.4253C17.7015 11.4253 17.9839 11.3549 18.1955 11.2841C19.2532 10.861 19.8175 9.59134 19.324 8.53357L17.2081 3.45566C16.785 2.39796 15.5153 1.83368 14.4576 2.32712C13.3999 2.75021 12.8356 4.01988 13.329 5.07766L15.4449 10.0852Z" fill="#03CB6B"/>
<path d="M33.5704 11.2138C33.8523 11.355 34.1347 11.355 34.3462 11.355C35.1924 11.355 35.9682 10.8611 36.321 10.0149L38.4369 4.93699C38.86 3.8793 38.3666 2.60962 37.3084 2.18646C36.2507 1.76338 34.981 2.25681 34.5578 3.315L32.4419 8.3929C31.9485 9.59179 32.4419 10.7907 33.5704 11.2137L33.5704 11.2138Z" fill="#03CB6B"/>
<path d="M49.6502 23.4149H41.6811V19.5359H42.1041C43.303 19.5359 44.2201 18.6189 44.2201 17.4199C44.2201 16.221 43.3031 15.304 42.1041 15.304H9.66195C8.46307 15.304 7.54603 16.221 7.54603 17.4199C7.54603 18.6188 8.46303 19.5359 9.66195 19.5359H10.085V23.4149H2.11592C0.917035 23.4149 0 24.3319 0 25.5309V27.7171C0 34.8401 4.79555 41.0466 11.6366 42.9508L15.5157 44.0085C15.6569 44.22 15.8684 44.4316 16.0096 44.5728C17.8432 46.4063 20.0299 47.6051 22.4981 48.1695V52.4013C22.4981 53.9529 21.2288 55.2221 19.6773 55.2221C19.113 55.2221 18.6196 55.7161 18.6196 56.2798V57.9018C18.6196 58.4661 18.1256 58.9595 17.5619 58.9595H16.1515C15.5872 58.9595 15.0938 59.4534 15.0938 60.0172L15.0928 65.9423C15.0928 66.5066 15.5867 67 16.1505 67H35.5453C36.1095 67 36.603 66.5061 36.603 65.9423V59.9473C36.603 59.383 36.109 58.8896 35.5453 58.8896H34.1349C33.5706 58.8896 33.0772 58.3957 33.0772 57.8319V56.2099C33.0772 55.6457 32.5832 55.1522 32.0195 55.1522C30.4679 55.1522 29.1987 53.883 29.1987 52.3314V48.0996C31.6673 47.5353 33.8535 46.3364 35.6871 44.5029C35.8986 44.2913 36.0398 44.1501 36.181 43.9386L40.0601 42.8809C46.9012 41.0473 51.6967 34.7706 51.6967 27.6472V25.461C51.7666 24.4023 50.7792 23.4149 49.6507 23.4149H49.6502ZM4.23111 27.7166V27.6462H10.0848C10.226 30.1149 10.6491 34.5577 12.3419 38.7191C7.61664 37.2378 4.23111 32.7945 4.23111 27.7166V27.7166ZM29.6912 60.7935V63.0506C29.6912 63.4033 29.4093 63.6149 29.1269 63.6149H22.7089C22.3561 63.6149 22.1446 63.333 22.1446 63.0506V60.7935C22.1446 60.4408 22.4265 60.1589 22.7089 60.1589H29.1269C29.4093 60.1589 29.6912 60.4412 29.6912 60.7935ZM33.4999 30.6787L31.0312 33.006C30.8196 33.2176 30.6784 33.5703 30.7493 33.8522L31.3839 37.167C31.5955 38.3658 30.3262 39.212 29.268 38.6483L26.3059 37.0263C26.024 36.8851 25.6713 36.8851 25.3889 37.0263L22.4268 38.6483C21.3691 39.2125 20.0994 38.2955 20.3109 37.167L20.9455 33.8522C21.0158 33.5703 20.8751 33.2176 20.6636 33.006L18.2658 30.6787C17.4196 29.8325 17.8427 28.4216 19.0416 28.21L22.3564 27.7869C22.6383 27.7166 22.9206 27.5754 23.0618 27.2226L24.5431 24.1902C25.0371 23.1325 26.5882 23.1325 27.0821 24.1902L28.5634 27.2226C28.7046 27.5045 28.9865 27.7166 29.2689 27.7869L32.5836 28.21C33.8523 28.4215 34.3458 29.9028 33.4996 30.6787H33.4999ZM47.5346 27.7162C47.5346 32.7941 44.2199 37.1666 39.4243 38.7182C41.1171 34.5573 41.5403 30.114 41.6814 27.6453H47.5351L47.5346 27.7162Z" fill="#03CB6B"/>
</svg>
