<svg width="17" height="22" viewBox="0 0 17 22" fill="none" xmlns="http://www.w3.org/2000/svg">
<path d="M1.48441 20.2075H15.3047C15.1066 16.5421 12.085 13.6689 8.41941 13.6689C4.75393 13.6689 1.73206 16.5419 1.48441 20.2075ZM15.7507 21.0002H1.08809C0.840452 21.0002 0.642212 20.8515 0.642212 20.6039C0.642212 16.2944 4.10975 12.8269 8.41916 12.8269C12.6793 12.8269 16.1468 16.2944 16.1468 20.6039C16.1468 20.8515 15.9981 21.0002 15.7505 21.0002H15.7507Z" fill="#F3F3F3" stroke="#F3F3F3" stroke-width="0.8"/>
<path d="M8.56807 1.03732L14.7104 4.05901C14.8591 4.15812 14.9085 4.30666 14.9085 4.45533V6.5854C15.3048 6.73407 15.602 7.13023 15.602 7.57611C15.602 8.17052 15.1066 8.66593 14.5122 8.66593C13.9178 8.66593 13.4224 8.17052 13.4224 7.57611C13.4224 7.13023 13.67 6.73409 14.0664 6.5854V5.14883L13.0261 5.64424V7.37803C13.0261 9.90427 10.9456 11.9848 8.41934 11.9848C5.84353 11.9848 3.81256 9.90427 3.81256 7.37803V5.64424L2.12834 4.85161C1.78159 4.65352 1.83115 4.25721 2.12834 4.05898L8.22139 1.03729C8.3205 0.987733 8.46904 0.987733 8.56815 1.03729L8.56807 1.03732ZM14.5125 7.32835C14.3638 7.32835 14.2648 7.42747 14.2648 7.576C14.2648 7.72467 14.3639 7.82364 14.5125 7.82364C14.6116 7.82364 14.7601 7.72453 14.7601 7.576C14.7601 7.42733 14.6114 7.32835 14.5125 7.32835ZM12.1843 6.09002L8.56814 7.87333C8.46903 7.92289 8.3205 7.92289 8.22139 7.87333L4.60523 6.09002V7.37792C4.60523 9.45846 6.33901 11.1427 8.41937 11.1427C10.4997 11.1427 12.1842 9.45853 12.1842 7.37792V6.09002H12.1843ZM13.5713 4.45536L8.41955 1.87956L3.21848 4.45536L8.41955 7.03117L13.5713 4.45536Z" fill="#F3F3F3" stroke="#F3F3F3" stroke-width="0.8"/>
</svg>
